<svg width="31" height="26" viewBox="0 0 31 26" fill="none" xmlns="http://www.w3.org/2000/svg">
<path d="M0 2C0 0.895431 0.895431 0 2 0H14C15.1046 0 16 0.895431 16 2C16 3.10457 15.1046 4 14 4H2C0.895431 4 0 3.10457 0 2Z" fill="black"/>
<path d="M0 13C0 11.8954 0.89543 11 2 11H29C30.1046 11 31 11.8954 31 13C31 14.1046 30.1046 15 29 15H2C0.89543 15 0 14.1046 0 13Z" fill="black"/>
<path d="M17 22C15.8954 22 15 22.8954 15 24C15 25.1046 15.8954 26 17 26H29C30.1046 26 31 25.1046 31 24C31 22.8954 30.1046 22 29 22H17Z" fill="black"/>
</svg>
